<svg width="51" height="29" viewBox="0 0 51 29" fill="none" xmlns="http://www.w3.org/2000/svg">
<path d="M7.59392 3.95268C7.59392 4.42144 7.50277 4.86415 7.32047 5.28083C7.1512 5.6975 6.91031 6.06209 6.5978 6.3746C6.2853 6.6871 5.92071 6.93451 5.50403 7.1168C5.08736 7.2991 4.63813 7.39024 4.15635 7.39024C3.67457 7.39024 3.21883 7.2991 2.78914 7.1168C2.37246 6.93451 2.00787 6.6871 1.69536 6.3746C1.38286 6.06209 1.13546 5.6975 0.953163 5.28083C0.770868 4.86415 0.67972 4.42144 0.67972 3.95268C0.67972 3.4709 0.770868 3.02167 0.953163 2.60499C1.13546 2.1753 1.38286 1.8042 1.69536 1.49169C2.00787 1.17919 2.37246 0.931785 2.78914 0.749489C3.21883 0.567194 3.67457 0.476046 4.15635 0.476046C4.63813 0.476046 5.08736 0.567194 5.50403 0.749489C5.92071 0.931785 6.2853 1.17919 6.5978 1.49169C6.91031 1.8042 7.1512 2.1753 7.32047 2.60499C7.50277 3.02167 7.59392 3.4709 7.59392 3.95268ZM6.92984 9.36294L5.44544 28.1524L1.67583 27.7617L1.44145 9.06996L6.92984 9.36294ZM19.9965 27.6055C18.8767 27.6055 17.7569 27.4622 16.6371 27.1758C15.5303 26.8893 14.5146 26.4531 13.5901 25.8672C12.6656 25.2682 11.8844 24.5195 11.2463 23.621C10.6213 22.7096 10.2372 21.6353 10.094 20.3983L15.5628 20.5546C15.5368 20.6327 15.5238 20.7173 15.5238 20.8085C15.5238 20.8866 15.5238 20.9647 15.5238 21.0429C15.5238 21.8111 15.6344 22.5012 15.8558 23.1132C16.0902 23.7252 16.4222 24.246 16.8519 24.6757C17.2816 25.0924 17.7959 25.4114 18.3949 25.6328C18.9939 25.8541 19.6645 25.9648 20.4067 25.9648C20.8494 25.9648 21.2791 25.9192 21.6958 25.8281C22.1254 25.737 22.5031 25.5872 22.8286 25.3789C23.1671 25.1575 23.4406 24.8711 23.6489 24.5195C23.8573 24.1679 23.9614 23.7252 23.9614 23.1913C23.9614 22.5924 23.7726 22.078 23.395 21.6483C23.0174 21.2186 22.5551 20.8606 22.0083 20.5741C21.4744 20.2746 20.908 20.0337 20.309 19.8514C19.7231 19.6561 19.2087 19.5064 18.766 19.4022C18.3103 19.285 17.7829 19.1548 17.1839 19.0116C16.598 18.8553 15.9925 18.6795 15.3675 18.4842C14.7425 18.2759 14.1305 18.035 13.5315 17.7615C12.9326 17.4881 12.3987 17.1626 11.9299 16.785C11.4612 16.4073 11.0836 15.9777 10.7971 15.4959C10.5106 15.0011 10.3674 14.4347 10.3674 13.7966C10.3674 13.0805 10.5041 12.4294 10.7776 11.8435C11.051 11.2575 11.4156 10.7367 11.8713 10.2809C12.3401 9.82519 12.874 9.43455 13.4729 9.10903C14.0849 8.77048 14.7165 8.49704 15.3675 8.2887C16.0186 8.06734 16.6761 7.90458 17.3402 7.80041C18.0043 7.69624 18.6293 7.64415 19.2152 7.64415C20.2048 7.64415 21.2075 7.76134 22.2231 7.99572C23.2518 8.21708 24.1828 8.58167 25.0161 9.0895C25.8625 9.59732 26.5656 10.2549 27.1255 11.0622C27.6985 11.8695 28.0305 12.8461 28.1217 13.9919L22.8091 14.4021V14.2068C22.8221 13.4385 22.7309 12.7419 22.5356 12.1169C22.3533 11.4919 22.0669 10.958 21.6762 10.5153C21.2986 10.0726 20.8168 9.73404 20.2309 9.49966C19.658 9.25226 18.9809 9.12856 18.1996 9.12856C17.848 9.12856 17.4639 9.18064 17.0472 9.28481C16.6306 9.38898 16.2399 9.55174 15.8753 9.7731C15.5238 9.98144 15.2243 10.2484 14.9769 10.5739C14.7295 10.8994 14.6058 11.2835 14.6058 11.7263C14.6058 12.4034 14.8141 12.9502 15.2308 13.3669C15.6605 13.7706 16.1813 14.0961 16.7933 14.3435C17.4053 14.5779 18.0433 14.7602 18.7074 14.8904C19.3715 15.0076 19.9509 15.1248 20.4457 15.242C20.9796 15.3591 21.546 15.5089 22.145 15.6912C22.757 15.8605 23.3559 16.0753 23.9419 16.3357C24.5409 16.5831 25.1073 16.8826 25.6411 17.2342C26.188 17.5727 26.6698 17.9699 27.0865 18.4256C27.5032 18.8683 27.8352 19.3762 28.0826 19.9491C28.33 20.509 28.4537 21.1405 28.4537 21.8436C28.4537 22.8984 28.1803 23.7968 27.6334 24.539C27.0865 25.2682 26.3899 25.8607 25.5435 26.3164C24.7101 26.7721 23.7987 27.0977 22.8091 27.293C21.8195 27.5013 20.8819 27.6055 19.9965 27.6055ZM42.0672 21.5116C41.0386 21.5116 40.0164 21.3814 39.0008 21.121C37.9982 20.8475 37.0867 20.4178 36.2664 19.8319C36.2794 20.3397 36.3119 20.8606 36.364 21.3944C36.4161 21.9283 36.5007 22.4491 36.6179 22.957C36.7481 23.4518 36.9109 23.9205 37.1062 24.3632C37.3145 24.8059 37.575 25.1966 37.8875 25.5351C38.213 25.8607 38.5971 26.1211 39.0398 26.3164C39.4956 26.5117 40.036 26.6094 40.661 26.6094C41.2469 26.6094 41.7938 26.5052 42.3016 26.2969C42.8094 26.0755 43.2522 25.7825 43.6298 25.4179C44.0204 25.0533 44.3394 24.6237 44.5868 24.1289C44.8342 23.634 45.0035 23.1002 45.0946 22.5273L49.8994 23.6015C49.5218 24.4088 48.988 25.0924 48.2978 25.6523C47.6207 26.2122 46.8655 26.6615 46.0322 27C45.1988 27.3516 44.3264 27.6055 43.4149 27.7617C42.5165 27.918 41.6506 27.9961 40.8172 27.9961C39.3198 27.9961 37.9851 27.7748 36.8132 27.332C35.6413 26.8893 34.6517 26.2513 33.8444 25.4179C33.0501 24.5846 32.4382 23.5755 32.0085 22.3905C31.5918 21.1926 31.3834 19.8514 31.3834 18.367C31.3834 16.9217 31.6308 15.561 32.1256 14.2849C32.6204 12.9958 33.3106 11.876 34.196 10.9255C35.0814 9.97493 36.1427 9.22622 37.3797 8.67933C38.6297 8.11942 40.0034 7.83947 41.5008 7.83947C42.5946 7.83947 43.6819 7.97619 44.7626 8.24964C45.8434 8.51006 46.8134 8.92673 47.6728 9.49966C48.5322 10.0596 49.2223 10.7822 49.7432 11.6677C50.277 12.5531 50.544 13.6208 50.544 14.8709C50.544 16.0948 50.2966 17.13 49.8018 17.9764C49.32 18.8097 48.682 19.4933 47.8877 20.0272C47.0934 20.5481 46.1884 20.9257 45.1728 21.16C44.1571 21.3944 43.122 21.5116 42.0672 21.5116ZM41.2274 9.28481C40.6284 9.28481 40.0946 9.40851 39.6258 9.65591C39.1701 9.89029 38.7599 10.2158 38.3953 10.6325C38.0437 11.0492 37.7442 11.5244 37.4968 12.0583C37.2494 12.5922 37.0411 13.1521 36.8718 13.738C36.7026 14.324 36.5723 14.9164 36.4812 15.5154C36.3901 16.1144 36.3315 16.6743 36.3054 17.1951C36.8002 18.0415 37.4578 18.7381 38.2781 19.285C39.0984 19.8189 40.049 20.0858 41.1297 20.0858C41.8198 20.0858 42.4383 19.9295 42.9852 19.617C43.5321 19.2915 43.9944 18.8748 44.372 18.367C44.7496 17.8592 45.0361 17.2928 45.2314 16.6678C45.4397 16.0428 45.5439 15.4177 45.5439 14.7927C45.5439 14.1677 45.4527 13.5297 45.2704 12.8786C45.0881 12.2146 44.8147 11.6221 44.4501 11.1013C44.0985 10.5674 43.6493 10.1312 43.1024 9.79263C42.5686 9.45409 41.9435 9.28481 41.2274 9.28481Z" fill="#011627"/>
</svg>
